# xmcd
#
# Track frame offsets: 
#        150
#        18119
#        38269
#        60460
#        88572
#        108269
#        125375
#        141756
#        156438
#        179249
#        197678
#        216414
#        232962
#        250040
#        266261
#
# Disc length: 3817 seconds
#
# Revision: 0
# Processed by: cddbd v1.5.2PL0 Copyright (c) Steve Scherf et al.
# Submitted via: ExactAudioCopy v1.3
#
DISCID=c30ee70f
DTITLE=Midnite Johnny - Long Road Home
DYEAR=2018
DGENRE=Chicago Blues
TTITLE0=Your New Occupation
TTITLE1=Slow Burn Inside
TTITLE2=Crazy Mama
TTITLE3=Long Road Home
TTITLE4=Lookin' Good
TTITLE5=Tired Of Foolin' Around
TTITLE6=All The Blues
TTITLE7=Motels, Whiskey and Me
TTITLE8=Betcha By Now
TTITLE9=Baby Batter
TTITLE10=Heard That One Before
TTITLE11=Key To The Highway
TTITLE12=Outta Time
TTITLE13=That's All Your Gonna Get
TTITLE14=Long Road Home (Acoustic)
EXTD=
EXTT0=
EXTT1=
EXTT2=
EXTT3=
EXTT4=
EXTT5=
EXTT6=
EXTT7=
EXTT8=
EXTT9=
EXTT10=
EXTT11=
EXTT12=
EXTT13=
EXTT14=
PLAYORDER=
